<?xml version="1.0" standalone="yes"?><svg xmlns="http://www.w3.org/2000/svg" version="1.1" width="333" height="333" viewBox="0 0 333 333" shape-rendering="crispEdges"><rect x="0" y="0" width="333" height="333" fill="#fff"/><path fill="#000" d="M36 36h9v9H36V36M45 36h9v9H45V36M54 36h9v9H54V36M63 36h9v9H63V36M72 36h9v9H72V36M81 36h9v9H81V36M90 36h9v9H90V36M117 36h9v9H117V36M126 36h9v9H126V36M144 36h9v9H144V36M162 36h9v9H162V36M180 36h9v9H180V36M198 36h9v9H198V36M207 36h9v9H207V36M216 36h9v9H216V36M234 36h9v9H234V36M243 36h9v9H243V36M252 36h9v9H252V36M261 36h9v9H261V36M270 36h9v9H270V36M279 36h9v9H279V36M288 36h9v9H288V36M36 45h9v9H36V45M90 45h9v9H90V45M171 45h9v9H171V45M216 45h9v9H216V45M234 45h9v9H234V45M288 45h9v9H288V45M36 54h9v9H36V54M54 54h9v9H54V54M63 54h9v9H63V54M72 54h9v9H72V54M90 54h9v9H90V54M126 54h9v9H126V54M180 54h9v9H180V54M207 54h9v9H207V54M234 54h9v9H234V54M252 54h9v9H252V54M261 54h9v9H261V54M270 54h9v9H270V54M288 54h9v9H288V54M36 63h9v9H36V63M54 63h9v9H54V63M63 63h9v9H63V63M72 63h9v9H72V63M90 63h9v9H90V63M126 63h9v9H126V63M135 63h9v9H135V63M153 63h9v9H153V63M162 63h9v9H162V63M189 63h9v9H189V63M207 63h9v9H207V63M216 63h9v9H216V63M234 63h9v9H234V63M252 63h9v9H252V63M261 63h9v9H261V63M270 63h9v9H270V63M288 63h9v9H288V63M36 72h9v9H36V72M54 72h9v9H54V72M63 72h9v9H63V72M72 72h9v9H72V72M90 72h9v9H90V72M117 72h9v9H117V72M162 72h9v9H162V72M171 72h9v9H171V72M198 72h9v9H198V72M207 72h9v9H207V72M234 72h9v9H234V72M252 72h9v9H252V72M261 72h9v9H261V72M270 72h9v9H270V72M288 72h9v9H288V72M36 81h9v9H36V81M90 81h9v9H90V81M108 81h9v9H108V81M117 81h9v9H117V81M153 81h9v9H153V81M162 81h9v9H162V81M189 81h9v9H189V81M207 81h9v9H207V81M234 81h9v9H234V81M288 81h9v9H288V81M36 90h9v9H36V90M45 90h9v9H45V90M54 90h9v9H54V90M63 90h9v9H63V90M72 90h9v9H72V90M81 90h9v9H81V90M90 90h9v9H90V90M108 90h9v9H108V90M126 90h9v9H126V90M144 90h9v9H144V90M162 90h9v9H162V90M180 90h9v9H180V90M198 90h9v9H198V90M216 90h9v9H216V90M234 90h9v9H234V90M243 90h9v9H243V90M252 90h9v9H252V90M261 90h9v9H261V90M270 90h9v9H270V90M279 90h9v9H279V90M288 90h9v9H288V90M189 99h9v9H189V99M198 99h9v9H198V99M207 99h9v9H207V99M36 108h9v9H36V108M63 108h9v9H63V108M81 108h9v9H81V108M90 108h9v9H90V108M108 108h9v9H108V108M117 108h9v9H117V108M135 108h9v9H135V108M180 108h9v9H180V108M189 108h9v9H189V108M198 108h9v9H198V108M225 108h9v9H225V108M243 108h9v9H243V108M36 117h9v9H36V117M54 117h9v9H54V117M99 117h9v9H99V117M108 117h9v9H108V117M144 117h9v9H144V117M171 117h9v9H171V117M189 117h9v9H189V117M198 117h9v9H198V117M207 117h9v9H207V117M216 117h9v9H216V117M225 117h9v9H225V117M234 117h9v9H234V117M261 117h9v9H261V117M288 117h9v9H288V117M36 126h9v9H36V126M45 126h9v9H45V126M54 126h9v9H54V126M72 126h9v9H72V126M90 126h9v9H90V126M99 126h9v9H99V126M108 126h9v9H108V126M126 126h9v9H126V126M135 126h9v9H135V126M144 126h9v9H144V126M189 126h9v9H189V126M198 126h9v9H198V126M216 126h9v9H216V126M225 126h9v9H225V126M234 126h9v9H234V126M261 126h9v9H261V126M270 126h9v9H270V126M279 126h9v9H279V126M45 135h9v9H45V135M63 135h9v9H63V135M72 135h9v9H72V135M108 135h9v9H108V135M117 135h9v9H117V135M126 135h9v9H126V135M162 135h9v9H162V135M189 135h9v9H189V135M207 135h9v9H207V135M216 135h9v9H216V135M234 135h9v9H234V135M243 135h9v9H243V135M252 135h9v9H252V135M270 135h9v9H270V135M279 135h9v9H279V135M63 144h9v9H63V144M81 144h9v9H81V144M90 144h9v9H90V144M135 144h9v9H135V144M144 144h9v9H144V144M180 144h9v9H180V144M189 144h9v9H189V144M216 144h9v9H216V144M225 144h9v9H225V144M234 144h9v9H234V144M261 144h9v9H261V144M279 144h9v9H279V144M288 144h9v9H288V144M72 153h9v9H72V153M81 153h9v9H81V153M99 153h9v9H99V153M108 153h9v9H108V153M117 153h9v9H117V153M126 153h9v9H126V153M135 153h9v9H135V153M171 153h9v9H171V153M180 153h9v9H180V153M189 153h9v9H189V153M198 153h9v9H198V153M216 153h9v9H216V153M243 153h9v9H243V153M36 162h9v9H36V162M54 162h9v9H54V162M81 162h9v9H81V162M90 162h9v9H90V162M126 162h9v9H126V162M135 162h9v9H135V162M234 162h9v9H234V162M252 162h9v9H252V162M261 162h9v9H261V162M270 162h9v9H270V162M279 162h9v9H279V162M288 162h9v9H288V162M36 171h9v9H36V171M108 171h9v9H108V171M117 171h9v9H117V171M126 171h9v9H126V171M153 171h9v9H153V171M162 171h9v9H162V171M171 171h9v9H171V171M198 171h9v9H198V171M216 171h9v9H216V171M225 171h9v9H225V171M234 171h9v9H234V171M243 171h9v9H243V171M252 171h9v9H252V171M261 171h9v9H261V171M279 171h9v9H279V171M45 180h9v9H45V180M54 180h9v9H54V180M63 180h9v9H63V180M72 180h9v9H72V180M81 180h9v9H81V180M90 180h9v9H90V180M99 180h9v9H99V180M108 180h9v9H108V180M135 180h9v9H135V180M144 180h9v9H144V180M153 180h9v9H153V180M162 180h9v9H162V180M189 180h9v9H189V180M198 180h9v9H198V180M216 180h9v9H216V180M225 180h9v9H225V180M279 180h9v9H279V180M45 189h9v9H45V189M63 189h9v9H63V189M81 189h9v9H81V189M99 189h9v9H99V189M108 189h9v9H108V189M126 189h9v9H126V189M144 189h9v9H144V189M180 189h9v9H180V189M216 189h9v9H216V189M225 189h9v9H225V189M234 189h9v9H234V189M243 189h9v9H243V189M261 189h9v9H261V189M288 189h9v9H288V189M36 198h9v9H36V198M54 198h9v9H54V198M63 198h9v9H63V198M90 198h9v9H90V198M153 198h9v9H153V198M171 198h9v9H171V198M180 198h9v9H180V198M189 198h9v9H189V198M216 198h9v9H216V198M225 198h9v9H225V198M234 198h9v9H234V198M243 198h9v9H243V198M279 198h9v9H279V198M288 198h9v9H288V198M108 207h9v9H108V207M126 207h9v9H126V207M144 207h9v9H144V207M153 207h9v9H153V207M180 207h9v9H180V207M189 207h9v9H189V207M252 207h9v9H252V207M279 207h9v9H279V207M288 207h9v9H288V207M36 216h9v9H36V216M54 216h9v9H54V216M63 216h9v9H63V216M72 216h9v9H72V216M81 216h9v9H81V216M90 216h9v9H90V216M108 216h9v9H108V216M126 216h9v9H126V216M135 216h9v9H135V216M162 216h9v9H162V216M189 216h9v9H189V216M216 216h9v9H216V216M225 216h9v9H225V216M234 216h9v9H234V216M243 216h9v9H243V216M252 216h9v9H252V216M270 216h9v9H270V216M108 225h9v9H108V225M144 225h9v9H144V225M153 225h9v9H153V225M180 225h9v9H180V225M189 225h9v9H189V225M198 225h9v9H198V225M216 225h9v9H216V225M252 225h9v9H252V225M270 225h9v9H270V225M279 225h9v9H279V225M288 225h9v9H288V225M36 234h9v9H36V234M45 234h9v9H45V234M54 234h9v9H54V234M63 234h9v9H63V234M72 234h9v9H72V234M81 234h9v9H81V234M90 234h9v9H90V234M126 234h9v9H126V234M135 234h9v9H135V234M153 234h9v9H153V234M162 234h9v9H162V234M171 234h9v9H171V234M189 234h9v9H189V234M216 234h9v9H216V234M234 234h9v9H234V234M252 234h9v9H252V234M279 234h9v9H279V234M36 243h9v9H36V243M90 243h9v9H90V243M108 243h9v9H108V243M117 243h9v9H117V243M126 243h9v9H126V243M135 243h9v9H135V243M144 243h9v9H144V243M153 243h9v9H153V243M180 243h9v9H180V243M189 243h9v9H189V243M207 243h9v9H207V243M216 243h9v9H216V243M252 243h9v9H252V243M261 243h9v9H261V243M270 243h9v9H270V243M288 243h9v9H288V243M36 252h9v9H36V252M54 252h9v9H54V252M63 252h9v9H63V252M72 252h9v9H72V252M90 252h9v9H90V252M126 252h9v9H126V252M135 252h9v9H135V252M162 252h9v9H162V252M180 252h9v9H180V252M189 252h9v9H189V252M216 252h9v9H216V252M225 252h9v9H225V252M234 252h9v9H234V252M243 252h9v9H243V252M252 252h9v9H252V252M288 252h9v9H288V252M36 261h9v9H36V261M54 261h9v9H54V261M63 261h9v9H63V261M72 261h9v9H72V261M90 261h9v9H90V261M108 261h9v9H108V261M117 261h9v9H117V261M144 261h9v9H144V261M153 261h9v9H153V261M162 261h9v9H162V261M171 261h9v9H171V261M189 261h9v9H189V261M207 261h9v9H207V261M225 261h9v9H225V261M234 261h9v9H234V261M243 261h9v9H243V261M252 261h9v9H252V261M261 261h9v9H261V261M270 261h9v9H270V261M288 261h9v9H288V261M36 270h9v9H36V270M54 270h9v9H54V270M63 270h9v9H63V270M72 270h9v9H72V270M90 270h9v9H90V270M126 270h9v9H126V270M144 270h9v9H144V270M153 270h9v9H153V270M180 270h9v9H180V270M252 270h9v9H252V270M261 270h9v9H261V270M270 270h9v9H270V270M288 270h9v9H288V270M36 279h9v9H36V279M90 279h9v9H90V279M117 279h9v9H117V279M126 279h9v9H126V279M180 279h9v9H180V279M216 279h9v9H216V279M234 279h9v9H234V279M243 279h9v9H243V279M279 279h9v9H279V279M36 288h9v9H36V288M45 288h9v9H45V288M54 288h9v9H54V288M63 288h9v9H63V288M72 288h9v9H72V288M81 288h9v9H81V288M90 288h9v9H90V288M108 288h9v9H108V288M144 288h9v9H144V288M162 288h9v9H162V288M180 288h9v9H180V288M189 288h9v9H189V288M207 288h9v9H207V288M216 288h9v9H216V288M225 288h9v9H225V288M234 288h9v9H234V288M243 288h9v9H243V288M252 288h9v9H252V288M261 288h9v9H261V288M279 288h9v9H279V288"/></svg>
