<?xml version="1.0" standalone="yes"?><svg xmlns="http://www.w3.org/2000/svg" version="1.1" width="330" height="330" viewBox="0 0 330 330" shape-rendering="crispEdges"><rect x="0" y="0" width="330" height="330" fill="#fff"/><path fill="#000" d="M40 40h10v10H40V40M50 40h10v10H50V40M60 40h10v10H60V40M70 40h10v10H70V40M80 40h10v10H80V40M90 40h10v10H90V40M100 40h10v10H100V40M120 40h10v10H120V40M130 40h10v10H130V40M150 40h10v10H150V40M160 40h10v10H160V40M200 40h10v10H200V40M220 40h10v10H220V40M230 40h10v10H230V40M240 40h10v10H240V40M250 40h10v10H250V40M260 40h10v10H260V40M270 40h10v10H270V40M280 40h10v10H280V40M40 50h10v10H40V50M100 50h10v10H100V50M120 50h10v10H120V50M130 50h10v10H130V50M140 50h10v10H140V50M150 50h10v10H150V50M170 50h10v10H170V50M180 50h10v10H180V50M220 50h10v10H220V50M280 50h10v10H280V50M40 60h10v10H40V60M60 60h10v10H60V60M70 60h10v10H70V60M80 60h10v10H80V60M100 60h10v10H100V60M120 60h10v10H120V60M130 60h10v10H130V60M140 60h10v10H140V60M170 60h10v10H170V60M220 60h10v10H220V60M240 60h10v10H240V60M250 60h10v10H250V60M260 60h10v10H260V60M280 60h10v10H280V60M40 70h10v10H40V70M60 70h10v10H60V70M70 70h10v10H70V70M80 70h10v10H80V70M100 70h10v10H100V70M130 70h10v10H130V70M140 70h10v10H140V70M150 70h10v10H150V70M170 70h10v10H170V70M220 70h10v10H220V70M240 70h10v10H240V70M250 70h10v10H250V70M260 70h10v10H260V70M280 70h10v10H280V70M40 80h10v10H40V80M60 80h10v10H60V80M70 80h10v10H70V80M80 80h10v10H80V80M100 80h10v10H100V80M120 80h10v10H120V80M150 80h10v10H150V80M160 80h10v10H160V80M180 80h10v10H180V80M220 80h10v10H220V80M240 80h10v10H240V80M250 80h10v10H250V80M260 80h10v10H260V80M280 80h10v10H280V80M40 90h10v10H40V90M100 90h10v10H100V90M130 90h10v10H130V90M150 90h10v10H150V90M160 90h10v10H160V90M170 90h10v10H170V90M180 90h10v10H180V90M220 90h10v10H220V90M280 90h10v10H280V90M40 100h10v10H40V100M50 100h10v10H50V100M60 100h10v10H60V100M70 100h10v10H70V100M80 100h10v10H80V100M90 100h10v10H90V100M100 100h10v10H100V100M120 100h10v10H120V100M140 100h10v10H140V100M160 100h10v10H160V100M180 100h10v10H180V100M200 100h10v10H200V100M220 100h10v10H220V100M230 100h10v10H230V100M240 100h10v10H240V100M250 100h10v10H250V100M260 100h10v10H260V100M270 100h10v10H270V100M280 100h10v10H280V100M150 110h10v10H150V110M170 110h10v10H170V110M40 120h10v10H40V120M70 120h10v10H70V120M80 120h10v10H80V120M90 120h10v10H90V120M100 120h10v10H100V120M110 120h10v10H110V120M120 120h10v10H120V120M130 120h10v10H130V120M140 120h10v10H140V120M160 120h10v10H160V120M170 120h10v10H170V120M210 120h10v10H210V120M240 120h10v10H240V120M260 120h10v10H260V120M270 120h10v10H270V120M280 120h10v10H280V120M40 130h10v10H40V130M50 130h10v10H50V130M60 130h10v10H60V130M70 130h10v10H70V130M90 130h10v10H90V130M110 130h10v10H110V130M130 130h10v10H130V130M170 130h10v10H170V130M180 130h10v10H180V130M190 130h10v10H190V130M200 130h10v10H200V130M240 130h10v10H240V130M250 130h10v10H250V130M260 130h10v10H260V130M270 130h10v10H270V130M50 140h10v10H50V140M60 140h10v10H60V140M80 140h10v10H80V140M100 140h10v10H100V140M140 140h10v10H140V140M170 140h10v10H170V140M190 140h10v10H190V140M200 140h10v10H200V140M230 140h10v10H230V140M250 140h10v10H250V140M280 140h10v10H280V140M40 150h10v10H40V150M60 150h10v10H60V150M70 150h10v10H70V150M80 150h10v10H80V150M90 150h10v10H90V150M130 150h10v10H130V150M150 150h10v10H150V150M160 150h10v10H160V150M170 150h10v10H170V150M190 150h10v10H190V150M210 150h10v10H210V150M230 150h10v10H230V150M250 150h10v10H250V150M260 150h10v10H260V150M270 150h10v10H270V150M280 150h10v10H280V150M50 160h10v10H50V160M60 160h10v10H60V160M70 160h10v10H70V160M100 160h10v10H100V160M140 160h10v10H140V160M150 160h10v10H150V160M160 160h10v10H160V160M170 160h10v10H170V160M200 160h10v10H200V160M220 160h10v10H220V160M280 160h10v10H280V160M40 170h10v10H40V170M110 170h10v10H110V170M120 170h10v10H120V170M130 170h10v10H130V170M140 170h10v10H140V170M170 170h10v10H170V170M180 170h10v10H180V170M190 170h10v10H190V170M210 170h10v10H210V170M240 170h10v10H240V170M270 170h10v10H270V170M40 180h10v10H40V180M50 180h10v10H50V180M80 180h10v10H80V180M100 180h10v10H100V180M140 180h10v10H140V180M150 180h10v10H150V180M160 180h10v10H160V180M170 180h10v10H170V180M190 180h10v10H190V180M210 180h10v10H210V180M220 180h10v10H220V180M240 180h10v10H240V180M250 180h10v10H250V180M260 180h10v10H260V180M270 180h10v10H270V180M280 180h10v10H280V180M40 190h10v10H40V190M60 190h10v10H60V190M80 190h10v10H80V190M90 190h10v10H90V190M110 190h10v10H110V190M130 190h10v10H130V190M150 190h10v10H150V190M200 190h10v10H200V190M210 190h10v10H210V190M230 190h10v10H230V190M250 190h10v10H250V190M260 190h10v10H260V190M280 190h10v10H280V190M40 200h10v10H40V200M80 200h10v10H80V200M100 200h10v10H100V200M110 200h10v10H110V200M120 200h10v10H120V200M140 200h10v10H140V200M180 200h10v10H180V200M200 200h10v10H200V200M210 200h10v10H210V200M220 200h10v10H220V200M230 200h10v10H230V200M240 200h10v10H240V200M260 200h10v10H260V200M270 200h10v10H270V200M120 210h10v10H120V210M130 210h10v10H130V210M150 210h10v10H150V210M160 210h10v10H160V210M170 210h10v10H170V210M180 210h10v10H180V210M200 210h10v10H200V210M240 210h10v10H240V210M260 210h10v10H260V210M270 210h10v10H270V210M40 220h10v10H40V220M50 220h10v10H50V220M60 220h10v10H60V220M70 220h10v10H70V220M80 220h10v10H80V220M90 220h10v10H90V220M100 220h10v10H100V220M120 220h10v10H120V220M150 220h10v10H150V220M200 220h10v10H200V220M220 220h10v10H220V220M240 220h10v10H240V220M280 220h10v10H280V220M40 230h10v10H40V230M100 230h10v10H100V230M120 230h10v10H120V230M160 230h10v10H160V230M180 230h10v10H180V230M190 230h10v10H190V230M200 230h10v10H200V230M240 230h10v10H240V230M270 230h10v10H270V230M40 240h10v10H40V240M60 240h10v10H60V240M70 240h10v10H70V240M80 240h10v10H80V240M100 240h10v10H100V240M120 240h10v10H120V240M130 240h10v10H130V240M160 240h10v10H160V240M170 240h10v10H170V240M180 240h10v10H180V240M190 240h10v10H190V240M200 240h10v10H200V240M210 240h10v10H210V240M220 240h10v10H220V240M230 240h10v10H230V240M240 240h10v10H240V240M280 240h10v10H280V240M40 250h10v10H40V250M60 250h10v10H60V250M70 250h10v10H70V250M80 250h10v10H80V250M100 250h10v10H100V250M120 250h10v10H120V250M140 250h10v10H140V250M180 250h10v10H180V250M190 250h10v10H190V250M210 250h10v10H210V250M220 250h10v10H220V250M270 250h10v10H270V250M280 250h10v10H280V250M40 260h10v10H40V260M60 260h10v10H60V260M70 260h10v10H70V260M80 260h10v10H80V260M100 260h10v10H100V260M130 260h10v10H130V260M140 260h10v10H140V260M160 260h10v10H160V260M180 260h10v10H180V260M190 260h10v10H190V260M200 260h10v10H200V260M210 260h10v10H210V260M240 260h10v10H240V260M250 260h10v10H250V260M260 260h10v10H260V260M270 260h10v10H270V260M280 260h10v10H280V260M40 270h10v10H40V270M100 270h10v10H100V270M130 270h10v10H130V270M180 270h10v10H180V270M210 270h10v10H210V270M230 270h10v10H230V270M240 270h10v10H240V270M260 270h10v10H260V270M270 270h10v10H270V270M280 270h10v10H280V270M40 280h10v10H40V280M50 280h10v10H50V280M60 280h10v10H60V280M70 280h10v10H70V280M80 280h10v10H80V280M90 280h10v10H90V280M100 280h10v10H100V280M120 280h10v10H120V280M140 280h10v10H140V280M170 280h10v10H170V280M180 280h10v10H180V280M200 280h10v10H200V280M220 280h10v10H220V280M250 280h10v10H250V280M280 280h10v10H280V280"/></svg>
